<svg width="1077" height="1083" viewBox="0 0 1077 1083" fill="none" xmlns="http://www.w3.org/2000/svg">
<path d="M394.144 69.1037C458.273 -101 887.289 -92.8828 1076.78 -101C1275.83 122.104 1606.59 649.691 1126 948.5C645.408 1247.31 203.86 975.13 69.5652 805.026C16.7638 721.705 -24.3744 655.039 16.7509 535C57.8763 414.961 69.5652 357.5 222.055 258.5C260.563 233.5 346.443 195.633 394.144 69.1037Z" fill="#55A6D9"/>
<path opacity="0.1" d="M505.102 837.687C506.098 832.382 505.73 825.69 505.503 819.346C503.666 768.227 512.155 722.793 524.501 687.62C529.729 672.722 535.857 653.125 530.874 632.63C528.196 621.624 523.155 614.852 518.918 606.778C510.036 589.877 503.912 564.329 502.9 539.93C501.748 512.17 506.475 483.756 499.463 458.218C495.144 442.499 487.609 433.245 480.557 425.54C469.558 413.53 458.449 402.627 447.231 392.833C439.712 386.268 431.846 380.118 424.623 381.999C418.263 383.654 413.019 391.384 407.951 398.965C403.524 405.594 398.997 412.457 396.273 423.076C394.495 430.009 393.538 438.375 391.291 444.39C386.013 458.518 375.803 455.434 366.934 454.203C346.015 451.359 326.208 464.281 311.008 490.686C287.693 531.195 276.068 600.097 253.944 643.944C244.433 662.8 233.046 676.876 225.045 699.322C220.554 712.073 217.287 726.692 215.389 742.52C211.612 773.55 212.83 810.501 219.655 844.232C226.479 877.964 239.009 907.891 253.43 922.358C268.867 937.842 284.76 935.101 300.524 941.584C316.804 948.284 333.008 964.895 349.303 972.591C362.484 978.788 375.754 978.886 388.14 972.877C400.526 966.869 411.713 954.906 420.882 937.868C433.479 914.459 442.669 868.59 459.238 858.235C471.055 850.92 499.646 866.74 505.102 837.687Z" fill="#484AA3"/>
<path opacity="0.1" d="M1290.58 484.794C1292.65 477.712 1292.53 468.98 1292.63 460.689C1293.4 393.873 1311.05 333.219 1334.39 285.54C1344.28 265.344 1356.02 238.873 1349.21 212.618C1345.55 198.519 1337.62 190.268 1331.12 180.21C1317.51 159.158 1309.17 126.417 1309.31 94.5442C1309.47 58.28 1319.53 20.4194 1309.7 -12.1957C1303.65 -32.2695 1291.72 -43.4623 1280.48 -52.6837C1262.95 -67.0561 1245.15 -79.9621 1227.08 -91.4017C1214.98 -99.0681 1202.26 -106.149 1190.01 -102.775C1179.22 -99.8069 1169.85 -89.0109 1160.79 -78.4327C1152.87 -69.1831 1144.76 -59.6136 1139.4 -45.3451C1135.9 -36.0293 1133.66 -24.9366 1129.44 -16.7658C1119.53 2.42596 1102.65 -0.337794 1087.88 -0.840045C1053.04 -1.94705 1018.87 17.4852 991.402 54.0233C949.274 110.077 924.601 201.904 884.22 262.187C866.858 288.11 846.714 308 831.613 338.442C823.126 355.73 816.549 375.313 812.177 396.31C803.51 437.481 802.768 485.792 811.667 529.177C820.565 572.562 839.312 610.242 862.391 627.407C887.098 645.781 913.942 640.192 939.875 646.718C966.656 653.463 992.564 673.217 1019.3 681.268C1040.92 687.743 1063.15 686.207 1084.37 676.773C1105.58 667.339 1125.23 650.247 1141.88 626.75C1164.75 594.467 1183.61 533.155 1212.16 517.495C1232.52 506.419 1279.25 523.583 1290.58 484.794Z" fill="#484AA3"/>
</svg>
